# xmcd
# Track frame offsets:
# 150
# 12517
# 23741
# 35119
# 43479
# 58044
# 70752
# 84497
# 105677
# 115214
# 129398
# 142863
# 157488
#
# Disc length: 2303 seconds
# Revision: 0
# Processed by: cddbd v1.4PL0 Copyright (c) Steve Scherf et al.
# Submitted via: VisiTrax 2.9.5.180 - For more info visit www.synapsa.com
#
DISCID=b908fd0d
DTITLE=Geronimo Trevino III - Trying to break the honky-tonk fever
DYEAR=1900
DGENRE=
TTITLE0=Son of San Antone Rose
TTITLE1=Heartbuster
TTITLE2=When you took my heart
TTITLE3=Drinking my last shot away
TTITLE4=Other side of the hill
TTITLE5=Playing hard to forget
TTITLE6=Folsom prison blues
TTITLE7=Milkcow blues
TTITLE8=Walking the floor over you
TTITLE9=Macho man from Taco land
TTITLE10=The wildside of life
TTITLE11=The price i did not want to pa
TTITLE12=Myster to me
EXTD=
EXTT0=
EXTT1=
EXTT2=
EXTT3=
EXTT4=
EXTT5=
EXTT6=
EXTT7=
EXTT8=
EXTT9=
EXTT10=
EXTT11=
EXTT12=
PLAYORDER=
